<svg width="222" height="33" viewBox="0 0 222 33" fill="none" xmlns="http://www.w3.org/2000/svg">
<path d="M0.665771 30.3342L18.5265 4.14461H0.665771V0.4429H24.7269V2.01613L6.72733 28.2983H24.3105V32H0.665771V30.3342ZM28.0653 16.2215C28.0653 13.2292 28.528 10.6997 29.4535 8.63294C30.4097 6.56615 31.6128 4.90038 33.0626 3.63563C34.5433 2.37088 36.1782 1.46087 37.9674 0.905614C39.7874 0.31951 41.5611 0.0264576 43.2886 0.0264576C45.0161 0.0264576 46.7744 0.273239 48.5635 0.766802C50.3836 1.22952 52.0185 2.07782 53.4683 3.31173C54.949 4.51478 56.1521 6.16513 57.0775 8.26277C58.0338 10.3604 58.5119 13.0287 58.5119 16.2677C58.5119 19.2908 58.0338 21.8357 57.0775 23.9025C56.1521 25.9693 54.949 27.6505 53.4683 28.9461C52.0185 30.2417 50.3836 31.1825 48.5635 31.7686C46.7744 32.3239 45.0161 32.6015 43.2886 32.6015C41.5611 32.6015 39.7874 32.3239 37.9674 31.7686C36.1782 31.2134 34.5433 30.3034 33.0626 29.0386C31.6128 27.7739 30.4097 26.0927 29.4535 23.995C28.528 21.8974 28.0653 19.3062 28.0653 16.2215ZM54.1161 16.4528C54.1161 12.2884 53.1444 9.1265 51.201 6.96717C49.2885 4.80784 46.7127 3.72817 43.4737 3.72817C41.8388 3.72817 40.3427 3.99038 38.9854 4.51478C37.6589 5.00835 36.5021 5.76411 35.515 6.78208C34.5587 7.80005 33.803 9.08023 33.2477 10.6226C32.7233 12.1341 32.4611 13.9233 32.4611 15.9901C32.4611 20.1545 33.4174 23.3472 35.3299 25.5683C37.2733 27.7893 39.8645 28.8998 43.1035 28.8998C44.7076 28.8998 46.1883 28.653 47.5456 28.1595C48.9029 27.6351 50.0597 26.8485 51.0159 25.7996C52.0031 24.7508 52.7588 23.4552 53.2832 21.9128C53.8385 20.3705 54.1161 18.5504 54.1161 16.4528ZM63.2207 16.2215C63.2207 13.2292 63.6834 10.6997 64.6089 8.63294C65.5652 6.56615 66.7682 4.90038 68.218 3.63563C69.6987 2.37088 71.3337 1.46087 73.1228 0.905614C74.9428 0.31951 76.7166 0.0264576 78.444 0.0264576C80.1715 0.0264576 81.9298 0.273239 83.719 0.766802C85.539 1.22952 87.1739 2.07782 88.6237 3.31173C90.1044 4.51478 91.3075 6.16513 92.2329 8.26277C93.1892 10.3604 93.6673 13.0287 93.6673 16.2677C93.6673 19.2908 93.1892 21.8357 92.2329 23.9025C91.3075 25.9693 90.1044 27.6505 88.6237 28.9461C87.1739 30.2417 85.539 31.1825 83.719 31.7686C81.9298 32.3239 80.1715 32.6015 78.444 32.6015C76.7166 32.6015 74.9428 32.3239 73.1228 31.7686C71.3337 31.2134 69.6987 30.3034 68.218 29.0386C66.7682 27.7739 65.5652 26.0927 64.6089 23.995C63.6834 21.8974 63.2207 19.3062 63.2207 16.2215ZM89.2715 16.4528C89.2715 12.2884 88.2998 9.1265 86.3564 6.96717C84.4439 4.80784 81.8681 3.72817 78.6291 3.72817C76.9942 3.72817 75.4981 3.99038 74.1408 4.51478C72.8143 5.00835 71.6576 5.76411 70.6704 6.78208C69.7142 7.80005 68.9584 9.08023 68.4031 10.6226C67.8787 12.1341 67.6165 13.9233 67.6165 15.9901C67.6165 20.1545 68.5728 23.3472 70.4853 25.5683C72.4287 27.7893 75.0199 28.8998 78.2589 28.8998C79.863 28.8998 81.3437 28.653 82.701 28.1595C84.0583 27.6351 85.2151 26.8485 86.1714 25.7996C87.1585 24.7508 87.9142 23.4552 88.4387 21.9128C88.9939 20.3705 89.2715 18.5504 89.2715 16.4528ZM100.967 0.4429H105.918L113.044 19.2291C113.445 20.3088 113.815 21.3113 114.155 22.2367C114.494 23.1313 114.787 23.9334 115.034 24.6428C115.342 25.4449 115.605 26.1852 115.82 26.8639H115.913C116.098 26.1852 116.329 25.4449 116.607 24.6428C116.854 23.9334 117.131 23.1313 117.44 22.2367C117.748 21.3113 118.119 20.3088 118.55 19.2291L125.815 0.4429H130.766L132.386 32H128.453L127.666 14.6482C127.604 13.1367 127.558 11.8565 127.527 10.8077C127.496 9.75888 127.481 8.89515 127.481 8.2165V6.2731H127.388C127.203 6.73581 126.972 7.36819 126.694 8.17022C126.447 8.84887 126.124 9.72803 125.723 10.8077C125.352 11.8565 124.89 13.1367 124.334 14.6482L117.81 32H113.877L107.307 14.6482C106.72 13.1675 106.242 11.9028 105.872 10.854C105.502 9.7743 105.193 8.89515 104.947 8.2165C104.669 7.41446 104.453 6.76666 104.299 6.2731H104.206C104.237 6.76666 104.268 7.41446 104.299 8.2165C104.33 9.5121 104.283 11.656 104.16 14.6482L103.235 32H99.3016L100.967 0.4429ZM139.807 0.4429H148.229C151.56 0.4429 153.967 1.05985 155.447 2.29376C156.959 3.52766 157.715 5.40936 157.715 7.93887C157.715 9.11108 157.545 10.129 157.206 10.9928C156.897 11.8565 156.542 12.5814 156.141 13.1675C155.679 13.8462 155.17 14.4323 154.614 14.9259C155.355 15.2035 156.049 15.5582 156.697 15.9901C157.344 16.422 157.915 16.9464 158.409 17.5633C158.902 18.1803 159.288 18.9206 159.565 19.7843C159.874 20.6172 160.028 21.6044 160.028 22.7457C160.028 24.0105 159.858 25.2135 159.519 26.3549C159.18 27.4654 158.609 28.4371 157.807 29.27C157.005 30.1029 155.941 30.7661 154.614 31.2597C153.288 31.7532 151.638 32 149.663 32H139.807V0.4429ZM143.694 14.1392H151.422C151.853 13.7999 152.239 13.3526 152.578 12.7974C152.887 12.3347 153.165 11.764 153.411 11.0853C153.658 10.3758 153.781 9.52752 153.781 8.5404C153.781 6.72039 153.303 5.50191 152.347 4.88496C151.422 4.23716 150.111 3.91326 148.414 3.91326H143.694V14.1392ZM143.694 28.5296H149.987C152.023 28.5296 153.55 28.0052 154.568 26.9564C155.586 25.9076 156.095 24.504 156.095 22.7457C156.095 21.9745 155.987 21.265 155.771 20.6172C155.586 19.9694 155.247 19.4142 154.753 18.9515C154.26 18.4579 153.596 18.0723 152.763 17.7947C151.931 17.517 150.897 17.3782 149.663 17.3782H143.694V28.5296ZM166.423 0.4429H170.309V28.2983H184.654V32H166.423V0.4429ZM189.513 0.4429H193.4V32H189.513V0.4429ZM201.533 0.4429H220.874V4.0058H205.42V14.093H219.764V17.5633H205.42V28.4371H221.337V32H201.533V0.4429Z" fill="#FF412E"/>
</svg>
