<svg width="72" height="72" viewBox="0 0 72 72" fill="none" xmlns="http://www.w3.org/2000/svg">
<rect width="72" height="72" fill="url(#paint0_linear_3_38)"/>
<path d="M36.8943 36.1984L36.8944 36.1984C42.1213 32.3135 46.2135 26.746 48.6529 20.207L48.6529 20.2069C49.8109 17.0983 49.3904 13.8197 47.9383 11.3171C46.4861 8.81431 43.9964 7.08 41.0159 7.08C36.3972 7.08 32.681 11.3402 32.681 16.5643L32.681 36.1057L27.4336 40.0039L27.4335 40.004C24.7803 41.9763 23.6535 45.2367 23.9175 48.3342C24.1815 51.4315 25.8384 54.3868 28.7776 55.7419L28.7777 55.7419L32.681 57.5394L32.681 60.6783C32.6789 60.7102 32.6779 60.7425 32.6779 60.7754C32.6779 62.9592 33.9763 64.4066 35.5001 64.8073C37.0272 65.2089 38.7602 64.5532 39.6024 62.584L39.6025 62.5841L39.6041 62.5798C40.5152 60.438 39.6553 57.8434 37.692 56.9409L35.0699 55.7334L35.0699 37.5538L36.8943 36.1984ZM36.788 59.4307L36.7881 59.4307C37.4576 59.7385 37.7766 60.6482 37.4499 61.4163C37.1574 62.1 36.5763 62.3174 36.0669 62.194C35.5551 62.0701 35.0961 61.5971 35.0682 60.8479C35.0693 60.8239 35.0699 60.7997 35.0699 60.7754L35.0699 58.6395L36.788 59.4307ZM41.0159 9.76955C43.1252 9.76955 44.8979 10.9958 45.9384 12.7885C46.979 14.5814 47.2815 16.9332 46.4505 19.1646C44.1929 25.216 40.4075 30.3641 35.5777 33.9537L35.0699 34.331L35.0699 16.5643C35.0699 12.7951 37.7451 9.76955 41.0159 9.76955ZM28.7503 42.2486L32.681 39.3285L32.681 54.6333L29.6834 53.2529C29.6834 53.2529 29.6834 53.2529 29.6834 53.2529C27.6435 52.3122 26.481 50.2547 26.2954 48.0768C26.1099 45.899 26.9033 43.6217 28.7502 42.2486C28.7503 42.2486 28.7503 42.2486 28.7503 42.2486Z" fill="white" stroke="white" stroke-width="0.24"/>
<defs>
<linearGradient id="paint0_linear_3_38" x1="36" y1="0" x2="36" y2="72" gradientUnits="userSpaceOnUse">
<stop stop-color="#FF2014"/>
<stop offset="1" stop-color="#FF9500"/>
</linearGradient>
</defs>
</svg>


